<svg width="24" height="24" viewBox="0 0 24 24" fill="none" xmlns="http://www.w3.org/2000/svg">
<path d="M12.8812 2.25934V15.5437C12.8812 16.2474 12.6017 16.9222 12.1042 17.4198C11.6066 17.9173 10.9318 18.1968 10.2281 18.1968C9.52447 18.1968 8.84964 17.9173 8.35208 17.4198C7.85452 16.9222 7.575 16.2474 7.575 15.5437C7.575 14.8392 7.85422 14.1634 8.35151 13.6643C8.8488 13.1653 9.52361 12.8837 10.2281 12.8812V9.34684C8.58461 9.34684 7.00841 9.99972 5.84627 11.1619C4.68413 12.324 4.03125 13.9002 4.03125 15.5437C4.03125 16.3575 4.19154 17.1633 4.50296 17.9152C4.81438 18.667 5.27084 19.3501 5.84627 19.9256C7.00841 21.0877 8.58461 21.7406 10.2281 21.7406C11.0419 21.7406 11.8477 21.5803 12.5996 21.2689C13.3514 20.9575 14.0345 20.501 14.61 19.9256C15.1854 19.3501 15.6419 18.667 15.9533 17.9152C16.2647 17.1633 16.425 16.3575 16.425 15.5437V9.34684L16.6125 9.44059C17.6559 9.95756 18.8043 10.227 19.9688 10.2281V6.68434H19.8656C18.8825 6.43943 18.0097 5.87254 17.3861 5.07401C16.7626 4.27547 16.4243 3.29123 16.425 2.27809H12.8812V2.25934Z" stroke="black" stroke-width="1.5" stroke-miterlimit="10"/>
</svg>
